# Blender v2.79 (sub 0) OBJ File: ''
# www.blender.org
mtllib plane.mtl
o Cube
v 0.000000 -1.000000 -1.000000
v 0.000000 -1.000000 1.000000
v 0.000000 -1.000000 1.000000
v 0.000000 -1.000000 -1.000000
v 0.000000 1.000000 -0.999999
v 0.000000 1.000000 1.000001
v 0.000000 1.000000 1.000000
v 0.000000 1.000000 -1.000000
vt 1.003664 1.006269
vt -0.003664 -0.001060
vt 1.003664 -0.001060
vt 0.998754 1.002659
vt -0.001358 0.002549
vt 0.998753 0.002549
vt 1.000115 0.997511
vt -0.002719 -0.005323
vt 1.000115 -0.005323
vt 0.994896 0.997500
vt -0.005313 -0.002708
vt 0.994896 -0.002708
vt -0.007562 -0.006261
vt 1.002354 1.003656
vt -0.007562 1.003656
vt 1.002234 1.002234
vt -0.002234 -0.002234
vt 1.002234 -0.002234
vt -0.003664 1.006269
vt -0.001358 1.002660
vt -0.002719 0.997511
vt -0.005313 0.997500
vt 1.002354 -0.006261
vt -0.002233 1.002234
vn 0.0000 0.0000 1.0000
vn 1.0000 0.0000 0.0000
vn -1.0000 0.0000 0.0000
usemtl Material
s off
f 1/1/1 3/2/1 4/3/1
f 5/4/1 7/5/1 6/6/1
f 5/7/2 2/8/2 1/9/2
f 6/10/1 3/11/1 2/12/1
f 7/13/3 4/14/3 3/15/3
f 1/16/2 8/17/2 5/18/2
f 1/1/1 2/19/1 3/2/1
f 5/4/1 8/20/1 7/5/1
f 5/7/2 6/21/2 2/8/2
f 6/10/3 7/22/3 3/11/3
f 7/13/3 8/23/3 4/14/3
f 1/16/2 4/24/2 8/17/2
